<?xml version="1.0" encoding="UTF-8"?>
<svg xmlns="http://www.w3.org/2000/svg" xmlns:xlink="http://www.w3.org/1999/xlink" width="150px" height="45px" viewBox="0 0 142 45" version="1.1">
<g id="surface1">
<path style=" stroke:none;fill-rule:nonzero;fill:rgb(100%,100%,100%);fill-opacity:1;" d="M 4.9375 9.578125 L 11.675781 9.578125 C 13.488281 9.578125 14.800781 10.023438 15.617188 10.914062 C 16.4375 11.804688 16.851562 13.257812 16.851562 15.261719 L 16.851562 16.371094 C 16.851562 18.75 16 20.171875 14.304688 20.632812 C 15.347656 20.90625 16.078125 21.535156 16.5 22.523438 C 16.921875 23.507812 17.136719 24.8125 17.136719 26.4375 C 17.136719 29.085938 16.742188 31.09375 15.949219 32.453125 C 15.160156 33.820312 13.734375 34.5 11.675781 34.5 L 4.9375 34.5 Z M 10.808594 18.949219 C 11.230469 18.949219 11.519531 18.789062 11.671875 18.472656 C 11.824219 18.15625 11.90625 17.703125 11.90625 17.121094 L 11.90625 14.632812 C 11.90625 13.820312 11.546875 13.410156 10.835938 13.410156 L 9.796875 13.410156 L 9.796875 18.949219 Z M 10.289062 30.117188 C 11.578125 30.117188 12.226562 29.5 12.226562 28.265625 L 12.226562 25.160156 C 12.226562 24.40625 12.113281 23.835938 11.894531 23.449219 C 11.671875 23.0625 11.28125 22.867188 10.71875 22.867188 L 9.796875 22.867188 L 9.796875 30.085938 Z M 10.289062 30.117188 "/>
<path style=" stroke:none;fill-rule:nonzero;fill:rgb(100%,100%,100%);fill-opacity:1;" d="M 24.390625 34.734375 C 22.351562 34.734375 20.835938 34.15625 19.84375 32.992188 C 18.851562 31.832031 18.355469 30.109375 18.355469 27.828125 L 18.355469 9.578125 L 23.175781 9.578125 L 23.175781 27.625 C 23.175781 28.421875 23.253906 29.039062 23.410156 29.484375 C 23.566406 29.925781 23.890625 30.148438 24.390625 30.148438 C 24.894531 30.148438 25.222656 29.929688 25.371094 29.496094 C 25.527344 29.0625 25.605469 28.441406 25.605469 27.625 L 25.605469 9.578125 L 30.433594 9.578125 L 30.433594 27.828125 C 30.433594 30.109375 29.9375 31.832031 28.945312 32.992188 C 27.953125 34.15625 26.433594 34.734375 24.390625 34.734375 Z M 24.390625 34.734375 "/>
<path style=" stroke:none;fill-rule:nonzero;fill:rgb(100%,100%,100%);fill-opacity:1;" d="M 44.597656 34.734375 C 42.785156 34.734375 41.335938 34.164062 40.246094 33.023438 C 39.15625 31.878906 38.613281 30.3125 38.613281 28.320312 L 38.613281 16.832031 C 38.613281 14.359375 39.101562 12.492188 40.082031 11.234375 C 41.066406 9.976562 42.613281 9.34375 44.714844 9.34375 C 46.542969 9.34375 48.015625 9.851562 49.132812 10.859375 C 50.253906 11.863281 50.816406 13.3125 50.816406 15.210938 L 50.816406 19.5 L 45.871094 19.5 L 45.871094 15.820312 C 45.871094 15.101562 45.78125 14.609375 45.605469 14.335938 C 45.433594 14.070312 45.136719 13.933594 44.714844 13.933594 C 44.269531 13.933594 43.964844 14.089844 43.804688 14.394531 C 43.640625 14.707031 43.558594 15.160156 43.558594 15.761719 L 43.558594 28.265625 C 43.558594 28.921875 43.652344 29.402344 43.84375 29.703125 C 44.039062 30 44.328125 30.148438 44.714844 30.148438 C 45.484375 30.148438 45.871094 29.519531 45.871094 28.265625 L 45.871094 23.765625 L 50.875 23.765625 L 50.875 28.464844 C 50.875 32.644531 48.78125 34.734375 44.597656 34.734375 Z M 44.597656 34.734375 "/>
<path style=" stroke:none;fill-rule:nonzero;fill:rgb(100%,100%,100%);fill-opacity:1;" d="M 58.445312 34.734375 C 54.226562 34.734375 52.117188 32.539062 52.117188 28.148438 L 52.117188 19.617188 C 52.117188 17.605469 52.679688 16.007812 53.804688 14.820312 C 54.933594 13.628906 56.480469 13.03125 58.445312 13.03125 C 60.410156 13.03125 61.957031 13.628906 63.082031 14.820312 C 64.210938 16.007812 64.773438 17.605469 64.773438 19.617188 L 64.773438 28.148438 C 64.773438 32.539062 62.664062 34.734375 58.445312 34.734375 Z M 58.445312 30.8125 C 58.851562 30.8125 59.148438 30.671875 59.339844 30.382812 C 59.535156 30.09375 59.632812 29.695312 59.632812 29.191406 L 59.632812 18.808594 C 59.632812 17.570312 59.234375 16.949219 58.445312 16.949219 C 57.65625 16.949219 57.261719 17.570312 57.261719 18.808594 L 57.261719 29.191406 C 57.261719 29.695312 57.355469 30.09375 57.546875 30.382812 C 57.742188 30.671875 58.039062 30.8125 58.445312 30.8125 Z M 58.445312 30.8125 "/>
<path style=" stroke:none;fill-rule:nonzero;fill:rgb(100%,100%,100%);fill-opacity:1;" d="M 66.507812 13.265625 L 71.570312 13.265625 L 71.570312 15.960938 C 71.78125 15.09375 72.144531 14.390625 72.667969 13.84375 C 73.1875 13.304688 73.882812 13.03125 74.746094 13.03125 C 76.171875 13.03125 77.230469 13.472656 77.910156 14.355469 C 78.59375 15.234375 78.9375 16.488281 78.9375 18.109375 L 78.9375 34.5 L 73.96875 34.5 L 73.96875 18.632812 C 73.96875 18.167969 73.878906 17.769531 73.695312 17.445312 C 73.511719 17.117188 73.226562 16.949219 72.84375 16.949219 C 72.320312 16.949219 71.976562 17.1875 71.816406 17.660156 C 71.652344 18.132812 71.570312 18.765625 71.570312 19.558594 L 71.570312 34.5 L 66.507812 34.5 Z M 66.507812 13.265625 "/>
<path style=" stroke:none;fill-rule:nonzero;fill:rgb(100%,100%,100%);fill-opacity:1;" d="M 80.785156 13.265625 L 85.847656 13.265625 L 85.847656 15.960938 C 86.058594 15.09375 86.425781 14.390625 86.945312 13.84375 C 87.46875 13.304688 88.160156 13.03125 89.027344 13.03125 C 90.453125 13.03125 91.507812 13.472656 92.191406 14.355469 C 92.875 15.234375 93.21875 16.488281 93.21875 18.109375 L 93.21875 34.5 L 88.25 34.5 L 88.25 18.632812 C 88.25 18.167969 88.15625 17.769531 87.972656 17.445312 C 87.789062 17.117188 87.507812 16.949219 87.121094 16.949219 C 86.597656 16.949219 86.257812 17.1875 86.09375 17.660156 C 85.929688 18.132812 85.847656 18.765625 85.847656 19.558594 L 85.847656 34.5 L 80.785156 34.5 Z M 80.785156 13.265625 "/>
<path style=" stroke:none;fill-rule:nonzero;fill:rgb(100%,100%,100%);fill-opacity:1;" d="M 100.992188 34.734375 C 98.816406 34.734375 97.257812 34.136719 96.308594 32.9375 C 95.367188 31.738281 94.898438 29.945312 94.898438 27.570312 L 94.898438 19.035156 C 94.898438 17.085938 95.453125 15.597656 96.574219 14.570312 C 97.691406 13.546875 99.25 13.03125 101.253906 13.03125 C 105.320312 13.03125 107.351562 15.035156 107.351562 19.035156 L 107.351562 20.578125 C 107.351562 22.125 107.332031 23.382812 107.296875 24.34375 L 99.953125 24.34375 L 99.953125 28.464844 C 99.953125 29.199219 100.03125 29.777344 100.179688 30.195312 C 100.335938 30.609375 100.664062 30.8125 101.167969 30.8125 C 101.554688 30.8125 101.828125 30.699219 101.992188 30.46875 C 102.15625 30.234375 102.25 29.96875 102.277344 29.671875 C 102.308594 29.371094 102.324219 28.929688 102.324219 28.347656 L 102.324219 26.289062 L 107.351562 26.289062 L 107.351562 27.507812 C 107.351562 29.988281 106.875 31.8125 105.921875 32.984375 C 104.964844 34.152344 103.324219 34.734375 100.992188 34.734375 Z M 102.324219 21.820312 L 102.324219 19.09375 C 102.324219 17.570312 101.949219 16.804688 101.195312 16.804688 C 100.347656 16.804688 99.925781 17.570312 99.925781 19.09375 L 99.925781 21.820312 Z M 102.324219 21.820312 "/>
<path style=" stroke:none;fill-rule:nonzero;fill:rgb(100%,100%,100%);fill-opacity:1;" d="M 115.390625 34.734375 C 113.074219 34.734375 111.40625 34.144531 110.386719 32.964844 C 109.367188 31.785156 108.859375 29.976562 108.859375 27.539062 L 108.859375 20.984375 C 108.859375 19.140625 109.054688 17.648438 109.449219 16.5 C 109.84375 15.347656 110.511719 14.484375 111.445312 13.90625 C 112.378906 13.324219 113.675781 13.03125 115.332031 13.03125 C 117.144531 13.03125 118.617188 13.507812 119.753906 14.453125 C 120.890625 15.402344 121.457031 16.726562 121.457031 18.429688 L 121.457031 21.679688 L 116.316406 21.679688 L 116.316406 18.691406 C 116.316406 18.128906 116.234375 17.699219 116.082031 17.402344 C 115.929688 17.101562 115.632812 16.949219 115.1875 16.949219 C 114.359375 16.949219 113.945312 17.542969 113.945312 18.71875 L 113.945312 29.015625 C 113.945312 29.5 114.042969 29.914062 114.246094 30.25 C 114.449219 30.589844 114.753906 30.757812 115.160156 30.757812 C 115.5625 30.757812 115.867188 30.59375 116.070312 30.265625 C 116.269531 29.9375 116.363281 29.511719 116.34375 28.984375 L 116.316406 25.417969 L 121.457031 25.417969 L 121.457031 29.132812 C 121.457031 30.875 120.894531 32.242188 119.765625 33.242188 C 118.640625 34.234375 117.183594 34.734375 115.390625 34.734375 Z M 115.390625 34.734375 "/>
<path style=" stroke:none;fill-rule:nonzero;fill:rgb(100%,100%,100%);fill-opacity:1;" d="M 127.445312 34.734375 C 126.113281 34.734375 125.195312 34.453125 124.695312 33.890625 C 124.195312 33.328125 123.945312 32.429688 123.945312 31.195312 L 123.945312 17.9375 L 122.527344 17.9375 L 122.527344 14.074219 L 123.945312 14.074219 L 123.945312 9.578125 L 128.855469 9.578125 L 128.855469 14.074219 L 130.304688 14.074219 L 130.304688 17.9375 L 128.855469 17.9375 L 128.855469 29.859375 C 128.855469 30.226562 128.886719 30.5 128.945312 30.671875 C 129.003906 30.847656 129.15625 30.929688 129.410156 30.929688 C 129.601562 30.929688 129.78125 30.921875 129.953125 30.902344 C 130.128906 30.882812 130.246094 30.875 130.304688 30.875 L 130.304688 34.351562 C 130.015625 34.433594 129.597656 34.511719 129.050781 34.601562 C 128.5 34.6875 127.964844 34.734375 127.445312 34.734375 Z M 127.445312 34.734375 "/>
<path style=" stroke:none;fill-rule:nonzero;fill:rgb(100%,100%,100%);fill-opacity:1;" d="M 138.316406 31.953125 C 138.316406 33.601562 136.984375 34.941406 135.339844 34.941406 C 133.695312 34.941406 132.363281 33.601562 132.363281 31.953125 C 132.363281 30.300781 133.695312 28.964844 135.339844 28.964844 C 136.984375 28.964844 138.316406 30.300781 138.316406 31.953125 Z M 138.316406 31.953125 "/>
</g>
</svg>
