<svg width="380" height="120" viewBox="0 0 380 120" fill="none" xmlns="http://www.w3.org/2000/svg">
<defs>
<g/>
<clipPath id="bc995539d8">
<path d="M 350.992188 204.738281 L 369.359375 204.738281 L 369.359375 220.675781 L 350.992188 220.675781 Z M 350.992188 204.738281 " clip-rule="nonzero"/>
</clipPath>
<clipPath id="63f5b257f5">
<path d="M 360.167969 204.738281 C 355.101562 204.738281 350.992188 208.304688 350.992188 212.707031 C 350.992188 217.109375 355.101562 220.675781 360.167969 220.675781 C 365.238281 220.675781 369.34375 217.109375 369.34375 212.707031 C 369.34375 208.304688 365.238281 204.738281 360.167969 204.738281 Z M 360.167969 204.738281 " clip-rule="nonzero"/>
</clipPath>
</defs>
<g fill="#000000" fill-opacity="1">
<g transform="translate(10.279904, 92)">
<g>
<path d="M 2.9375 -66.453125 L 20.96875 -66.453125 C 25.8125 -66.453125 29.328125 -65.265625 31.515625 -62.890625 C 33.710938 -60.515625 34.8125 -56.648438 34.8125 -51.296875 L 34.8125 -48.34375 C 34.8125 -42 32.539062 -38.210938 28 -36.984375 C 30.789062 -36.253906 32.75 -34.570312 33.875 -31.9375 C 35.007812 -29.3125 35.578125 -25.832031 35.578125 -21.5 C 35.578125 -14.4375 34.519531 -9.085938 32.40625 -5.453125 C 30.289062 -1.816406 26.476562 0 20.96875 0 L 2.9375 0 Z M 18.640625 -41.46875 C 19.773438 -41.46875 20.546875 -41.890625 20.953125 -42.734375 C 21.367188 -43.585938 21.578125 -44.789062 21.578125 -46.34375 L 21.578125 -52.984375 C 21.578125 -55.148438 20.625 -56.234375 18.71875 -56.234375 L 15.9375 -56.234375 L 15.9375 -41.46875 Z M 17.25 -11.6875 C 20.707031 -11.6875 22.4375 -13.332031 22.4375 -16.625 L 22.4375 -24.90625 C 22.4375 -26.914062 22.140625 -28.4375 21.546875 -29.46875 C 20.953125 -30.5 19.90625 -31.015625 18.40625 -31.015625 L 15.9375 -31.015625 L 15.9375 -11.765625 Z M 17.25 -11.6875 "/>
</g>
</g>
</g>
<g fill="#000000" fill-opacity="1">
<g transform="translate(46.945411, 92)">
<g>
<path d="M 18.328125 0.625 C 12.867188 0.625 8.8125 -0.921875 6.15625 -4.015625 C 3.5 -7.117188 2.171875 -11.710938 2.171875 -17.796875 L 2.171875 -66.453125 L 15.078125 -66.453125 L 15.078125 -18.328125 C 15.078125 -16.210938 15.285156 -14.5625 15.703125 -13.375 C 16.117188 -12.195312 16.992188 -11.609375 18.328125 -11.609375 C 19.671875 -11.609375 20.546875 -12.1875 20.953125 -13.34375 C 21.367188 -14.5 21.578125 -16.160156 21.578125 -18.328125 L 21.578125 -66.453125 L 34.5 -66.453125 L 34.5 -17.796875 C 34.5 -11.710938 33.171875 -7.117188 30.515625 -4.015625 C 27.859375 -0.921875 23.796875 0.625 18.328125 0.625 Z M 18.328125 0.625 "/>
</g>
</g>
</g>
<g fill="#000000" fill-opacity="1">
<g transform="translate(83.224149, 92)">
<g/>
</g>
</g>
<g fill="#000000" fill-opacity="1">
<g transform="translate(100.938074, 92)">
<g>
<path d="M 18.40625 0.625 C 13.5625 0.625 9.679688 -0.894531 6.765625 -3.9375 C 3.847656 -6.988281 2.390625 -11.171875 2.390625 -16.484375 L 2.390625 -47.109375 C 2.390625 -53.710938 3.703125 -58.691406 6.328125 -62.046875 C 8.960938 -65.398438 13.09375 -67.078125 18.71875 -67.078125 C 23.613281 -67.078125 27.554688 -65.734375 30.546875 -63.046875 C 33.546875 -60.367188 35.046875 -56.5 35.046875 -51.4375 L 35.046875 -40 L 21.8125 -40 L 21.8125 -49.8125 C 21.8125 -51.726562 21.578125 -53.046875 21.109375 -53.765625 C 20.648438 -54.484375 19.851562 -54.84375 18.71875 -54.84375 C 17.53125 -54.84375 16.71875 -54.429688 16.28125 -53.609375 C 15.84375 -52.785156 15.625 -51.570312 15.625 -49.96875 L 15.625 -16.625 C 15.625 -14.875 15.878906 -13.597656 16.390625 -12.796875 C 16.910156 -12.003906 17.6875 -11.609375 18.71875 -11.609375 C 20.78125 -11.609375 21.8125 -13.28125 21.8125 -16.625 L 21.8125 -28.625 L 35.203125 -28.625 L 35.203125 -16.09375 C 35.203125 -4.945312 29.601562 0.625 18.40625 0.625 Z M 18.40625 0.625 "/>
</g>
</g>
</g>
<g fill="#000000" fill-opacity="1">
<g transform="translate(137.216811, 92)">
<g>
<path d="M 19.1875 0.625 C 7.894531 0.625 2.25 -5.226562 2.25 -16.9375 L 2.25 -39.6875 C 2.25 -45.050781 3.753906 -49.316406 6.765625 -52.484375 C 9.785156 -55.660156 13.925781 -57.25 19.1875 -57.25 C 24.445312 -57.25 28.582031 -55.660156 31.59375 -52.484375 C 34.613281 -49.316406 36.125 -45.050781 36.125 -39.6875 L 36.125 -16.9375 C 36.125 -5.226562 30.476562 0.625 19.1875 0.625 Z M 19.1875 -9.828125 C 20.269531 -9.828125 21.066406 -10.210938 21.578125 -10.984375 C 22.097656 -11.753906 22.359375 -12.8125 22.359375 -14.15625 L 22.359375 -41.84375 C 22.359375 -45.144531 21.300781 -46.796875 19.1875 -46.796875 C 17.070312 -46.796875 16.015625 -45.144531 16.015625 -41.84375 L 16.015625 -14.15625 C 16.015625 -12.8125 16.269531 -11.753906 16.78125 -10.984375 C 17.300781 -10.210938 18.101562 -9.828125 19.1875 -9.828125 Z M 19.1875 -9.828125 "/>
</g>
</g>
</g>
<g fill="#000000" fill-opacity="1">
<g transform="translate(175.274685, 92)">
<g>
<path d="M 2.703125 -56.625 L 16.25 -56.625 L 16.25 -49.4375 C 16.8125 -51.75 17.789062 -53.628906 19.1875 -55.078125 C 20.582031 -56.523438 22.4375 -57.25 24.75 -57.25 C 28.570312 -57.25 31.394531 -56.070312 33.21875 -53.71875 C 35.050781 -51.375 35.96875 -48.035156 35.96875 -43.703125 L 35.96875 0 L 22.671875 0 L 22.671875 -42.3125 C 22.671875 -43.550781 22.425781 -44.609375 21.9375 -45.484375 C 21.445312 -46.359375 20.6875 -46.796875 19.65625 -46.796875 C 18.257812 -46.796875 17.34375 -46.164062 16.90625 -44.90625 C 16.46875 -43.644531 16.25 -41.957031 16.25 -39.84375 L 16.25 0 L 2.703125 0 Z M 2.703125 -56.625 "/>
</g>
</g>
</g>
<g fill="#000000" fill-opacity="1">
<g transform="translate(213.487269, 92)">
<g>
<path d="M 2.703125 -56.625 L 16.25 -56.625 L 16.25 -49.4375 C 16.8125 -51.75 17.789062 -53.628906 19.1875 -55.078125 C 20.582031 -56.523438 22.4375 -57.25 24.75 -57.25 C 28.570312 -57.25 31.394531 -56.070312 33.21875 -53.71875 C 35.050781 -51.375 35.96875 -48.035156 35.96875 -43.703125 L 35.96875 0 L 22.671875 0 L 22.671875 -42.3125 C 22.671875 -43.550781 22.425781 -44.609375 21.9375 -45.484375 C 21.445312 -46.359375 20.6875 -46.796875 19.65625 -46.796875 C 18.257812 -46.796875 17.34375 -46.164062 16.90625 -44.90625 C 16.46875 -43.644531 16.25 -41.957031 16.25 -39.84375 L 16.25 0 L 2.703125 0 Z M 2.703125 -56.625 "/>
</g>
</g>
</g>
<g fill="#000000" fill-opacity="1">
<g transform="translate(251.699853, 92)">
<g>
<path d="M 18.5625 0.625 C 12.738281 0.625 8.5625 -0.972656 6.03125 -4.171875 C 3.507812 -7.367188 2.25 -12.140625 2.25 -18.484375 L 2.25 -41.234375 C 2.25 -46.441406 3.742188 -50.410156 6.734375 -53.140625 C 9.722656 -55.878906 13.898438 -57.25 19.265625 -57.25 C 30.140625 -57.25 35.578125 -51.910156 35.578125 -41.234375 L 35.578125 -37.125 C 35.578125 -33 35.53125 -29.648438 35.4375 -27.078125 L 15.78125 -27.078125 L 15.78125 -16.09375 C 15.78125 -14.132812 15.984375 -12.597656 16.390625 -11.484375 C 16.804688 -10.378906 17.6875 -9.828125 19.03125 -9.828125 C 20.0625 -9.828125 20.796875 -10.132812 21.234375 -10.75 C 21.671875 -11.375 21.925781 -12.082031 22 -12.875 C 22.082031 -13.675781 22.125 -14.851562 22.125 -16.40625 L 22.125 -21.890625 L 35.578125 -21.890625 L 35.578125 -18.640625 C 35.578125 -12.035156 34.300781 -7.171875 31.75 -4.046875 C 29.195312 -0.929688 24.800781 0.625 18.5625 0.625 Z M 22.125 -33.8125 L 22.125 -41.078125 C 22.125 -45.148438 21.117188 -47.1875 19.109375 -47.1875 C 16.835938 -47.1875 15.703125 -45.148438 15.703125 -41.078125 L 15.703125 -33.8125 Z M 22.125 -33.8125 "/>
</g>
</g>
</g>
<g fill="#000000" fill-opacity="1">
<g transform="translate(289.061538, 92)">
<g>
<path d="M 19.734375 0.625 C 13.535156 0.625 9.070312 -0.945312 6.34375 -4.09375 C 3.613281 -7.238281 2.25 -12.0625 2.25 -18.5625 L 2.25 -36.046875 C 2.25 -40.953125 2.773438 -44.9375 3.828125 -48 C 4.890625 -51.070312 6.671875 -53.378906 9.171875 -54.921875 C 11.671875 -56.472656 15.140625 -57.25 19.578125 -57.25 C 24.421875 -57.25 28.363281 -55.984375 31.40625 -53.453125 C 34.445312 -50.929688 35.96875 -47.398438 35.96875 -42.859375 L 35.96875 -34.1875 L 22.203125 -34.1875 L 22.203125 -42.15625 C 22.203125 -43.65625 21.992188 -44.800781 21.578125 -45.59375 C 21.171875 -46.394531 20.375 -46.796875 19.1875 -46.796875 C 16.96875 -46.796875 15.859375 -45.222656 15.859375 -42.078125 L 15.859375 -14.625 C 15.859375 -13.332031 16.128906 -12.234375 16.671875 -11.328125 C 17.210938 -10.429688 18.023438 -9.984375 19.109375 -9.984375 C 20.191406 -9.984375 21.003906 -10.421875 21.546875 -11.296875 C 22.085938 -12.171875 22.332031 -13.304688 22.28125 -14.703125 L 22.203125 -24.21875 L 35.96875 -24.21875 L 35.96875 -14.3125 C 35.96875 -9.664062 34.457031 -6.015625 31.4375 -3.359375 C 28.425781 -0.703125 24.523438 0.625 19.734375 0.625 Z M 19.734375 0.625 "/>
</g>
</g>
</g>
<g fill="#000000" fill-opacity="1">
<g transform="translate(326.655283, 92)">
<g>
<path d="M 14.390625 0.625 C 10.828125 0.625 8.375 -0.125 7.03125 -1.625 C 5.695312 -3.125 5.03125 -5.519531 5.03125 -8.8125 L 5.03125 -44.171875 L 1.234375 -44.171875 L 1.234375 -54.46875 L 5.03125 -54.46875 L 5.03125 -66.453125 L 18.171875 -66.453125 L 18.171875 -54.46875 L 22.046875 -54.46875 L 22.046875 -44.171875 L 18.171875 -44.171875 L 18.171875 -12.375 C 18.171875 -11.394531 18.25 -10.671875 18.40625 -10.203125 C 18.5625 -9.742188 18.976562 -9.515625 19.65625 -9.515625 C 20.164062 -9.515625 20.648438 -9.539062 21.109375 -9.59375 C 21.578125 -9.644531 21.890625 -9.671875 22.046875 -9.671875 L 22.046875 -0.390625 C 21.273438 -0.179688 20.15625 0.0351562 18.6875 0.265625 C 17.21875 0.503906 15.785156 0.625 14.390625 0.625 Z M 14.390625 0.625 "/>
</g>
</g>
</g>
<!-- <g clip-path="url(#bc995539d8)">
<g clip-path="url(#63f5b257f5)"> -->
<g transform="translate(2, -127.5)">
  <circle cx="360.175781" cy="212.707031" r="7.96875" fill="#000000"/>
</g>

<!-- ф -->
</svg>